<?xml version="1.0" encoding="utf-8"?>
<!-- Generator: Adobe Illustrator 18.1.0, SVG Export Plug-In . SVG Version: 6.00 Build 0)  -->
<!DOCTYPE svg PUBLIC "-//W3C//DTD SVG 1.1//EN" "http://www.w3.org/Graphics/SVG/1.1/DTD/svg11.dtd">
<svg version="1.1" id="Layer_1" xmlns="http://www.w3.org/2000/svg" xmlns:xlink="http://www.w3.org/1999/xlink" x="0px" y="0px"
	 viewBox="-283 434.9 50 50" enable-background="new -283 434.9 50 50" xml:space="preserve">
<circle cx="-258" cy="459.9" r="24.2"/>
<path fill="#FFFFFF" d="M-245.7,446.5c-3.8,2.3-16.2,10-16.4,12.1l0,0.1l0.4,0.7l-0.8-0.1l-0.1,0c-0.7,0-2.2,1.8-2.9,3.3
	c-0.8,1.8-0.6,3.4,0.6,4.6c0.1,0.1,0.1,0.1,0.2,0.2l-0.8,0.7l-0.9-0.9l-0.5,0.5l0.9,0.8l-5.7,5.5l2.4-0.9l4-4l0.6,0.6l0.5-0.5
	l-0.6-0.6l0.8-0.8c0.7,0.4,1.6,0.6,2.6,0.6c2.1,0,4.4-1.1,4.8-1.8c0.1-0.2,0.1-0.4,0.1-0.5l-0.1-0.6l0.5,0.3l0.2,0.1
	c0.5,0,1.1,0,6.1-9.6c2.4-4.6,4.6-9.3,4.7-9.3l0.7-1.5L-245.7,446.5z M-255.7,465l-1.9-0.9l0.2,2.3c-0.4,0.4-2.1,1.3-4,1.3
	c-0.7,0-1.3-0.1-1.8-0.4l0,0l9.1-10l-0.2-0.1l-9.6,9.5l-0.2,0.2c-0.1-0.1-0.1-0.1-0.2-0.2c-0.7-0.7-0.9-1.6-0.7-2.6
	c0.4-1.7,1.9-3.4,2.3-3.6l2.6,0.4l-1.1-2.2c0.4-1.1,5.2-4.5,10.8-8.1v2l1.7-0.2C-251.8,458.6-254.8,464.1-255.7,465z M-248.3,451.6
	l-1.4,0.2v-1.7c1-0.6,2-1.3,3.1-1.9C-247.2,449.3-247.7,450.5-248.3,451.6z"/>
</svg>
